# xmcd
#
# Track frame offsets:
#	150
#	14301
#	33040
#	50673
#	65375
#	82940
#	98761
#	115190
#	130299
#	147833
#	164160
#	185229
#	201442
#
# Disc length: 2837
#
# Revision: 2
# Processed by: cddbd v1.5.1PL0 Copyright (c) Steve Scherf et al.
# Submitted via: CDex 1.30
# Normalized: r1:TDELIM( - )
#
DISCID=b70b130d
DTITLE=CDX - Volume 260 Feb. 2001
DYEAR=2001
DGENRE=Country
TTITLE0=Dixie Chicks - If I Fall You're Going Down With Me
TTITLE1=George Strait - If You Can Do Anything Else
TTITLE2=Rodney Crowell - I Walk The Line
TTITLE3=The Wilkinsons - I Wanna Be That Girl
TTITLE4=Chris Cagle - Laredo
TTITLE5=K. T. Oslin - Live Close By, Visit Often
TTITLE6=Great Divide - Out Of Here Tonight
TTITLE7=John Anderson - The Big Revival
TTITLE8=Tracy Lawrence - Unforgivin
TTITLE9=Ray Hood - What's A Little More Water
TTITLE10=Delbert McClinton - When Rita Leaves
TTITLE11=Marshall Dyllon - You
TTITLE12=Rick Heartless - I'll Be There
EXTD=\n\nYEAR: 2001  ID3G:   2
EXTT0=
EXTT1=
EXTT2=
EXTT3=
EXTT4=
EXTT5=
EXTT6=
EXTT7=
EXTT8=
EXTT9=
EXTT10=
EXTT11=
EXTT12=
PLAYORDER=
